<svg width="175" height="48" viewBox="0 0 175 48" fill="none" xmlns="http://www.w3.org/2000/svg">
<g id="logo">
<g id="color-primary">
<path id="path4" fill-rule="evenodd" clip-rule="evenodd" d="M136.309 24.9694C136.309 26.8576 135.939 28.6404 135.2 30.318C134.454 32.0019 133.377 33.5001 131.956 34.8186C130.523 36.1373 128.907 37.1463 127.11 37.8459C125.313 38.5453 123.426 38.8982 121.447 38.8982C119.443 38.8982 117.535 38.5453 115.719 37.8398C113.896 37.1277 112.294 36.1248 110.899 34.8186C109.478 33.5001 108.401 32.0082 107.668 30.3366C106.935 28.6714 106.565 26.8824 106.565 24.9694C106.565 23.0688 106.935 21.2798 107.668 19.6021C108.401 17.9182 109.478 16.4139 110.899 15.083C112.32 13.7644 113.928 12.7615 115.725 12.0743C117.522 11.3873 119.43 11.0404 121.447 11.0404C123.452 11.0404 125.346 11.3873 127.136 12.0743C128.933 12.7615 130.536 13.7644 131.956 15.083C133.377 16.4263 134.454 17.943 135.2 19.6269C135.939 21.3168 136.309 23.0936 136.309 24.9694ZM131.593 24.9694C131.593 23.6322 131.334 22.3569 130.821 21.1436C130.309 19.9364 129.575 18.8594 128.609 17.9182C127.675 16.9834 126.585 16.2716 125.352 15.7701C124.113 15.2687 122.816 15.0149 121.447 15.0149C120.078 15.0149 118.774 15.2626 117.542 15.7576C116.309 16.253 115.206 16.9712 114.246 17.9182C113.286 18.8468 112.547 19.9178 112.041 21.125C111.535 22.3383 111.282 23.6197 111.282 24.9694C111.282 26.3127 111.535 27.5817 112.041 28.7827C112.547 29.9774 113.286 31.0484 114.246 31.9896C115.206 32.9366 116.303 33.6549 117.535 34.1502C118.761 34.6453 120.065 34.8929 121.447 34.8929C122.803 34.8929 124.094 34.6453 125.313 34.1502C126.533 33.6549 127.636 32.9366 128.609 31.9896C129.575 31.0484 130.309 29.9774 130.821 28.7706C131.334 27.5694 131.593 26.3003 131.593 24.9694Z" fill="#007D7E"/>
<path id="path12" fill-rule="evenodd" clip-rule="evenodd" d="M166.656 15.306V38.1926H162.135V15.306H154.739V11.641H174.013V15.306H166.656Z" fill="#007D7E"/>
<path id="path14" fill-rule="evenodd" clip-rule="evenodd" d="M141.492 38.1926V11.641H146.014V34.3295H156.127V38.1926H141.492Z" fill="#007D7E"/>
<path id="path16" fill-rule="evenodd" clip-rule="evenodd" d="M93.2343 39.2264L80.8242 11.641H85.5211L91.7552 25.7866C92.1185 26.61 92.4235 27.3652 92.6634 28.0648C92.9035 28.7581 93.098 29.4204 93.2343 30.0519C93.403 29.3832 93.6105 28.6961 93.8635 27.9842C94.1166 27.2662 94.4149 26.5355 94.7589 25.7866L100.967 11.641H105.644L93.2343 39.2264Z" fill="#007D7E"/>
<path id="path18" fill-rule="evenodd" clip-rule="evenodd" d="M62.6533 38.1926V11.641H69.666C71.6704 11.641 73.1496 11.7462 74.1032 11.9505C75.0568 12.1548 75.8742 12.4953 76.5423 12.9658C77.4051 13.5725 78.0733 14.3648 78.5469 15.3429C79.0205 16.3211 79.2605 17.4046 79.2605 18.587C79.2605 20.0046 78.9167 21.187 78.2355 22.134C77.5479 23.0813 76.5554 23.7437 75.2514 24.1214C76.8732 24.3627 78.1513 25.0684 79.0855 26.2323C80.0131 27.4022 80.4801 28.8695 80.4801 30.6462C80.4801 31.7233 80.2856 32.7448 79.8897 33.7104C79.5005 34.6825 78.9428 35.5058 78.216 36.1807C77.4572 36.9173 76.5164 37.4374 75.3878 37.7406C74.259 38.0438 72.3646 38.1926 69.705 38.1926H62.6533ZM67.0841 34.5836H68.6409C70.224 34.5836 71.411 34.5216 72.1959 34.4039C72.9809 34.2801 73.5972 34.0696 74.0578 33.7663C74.6158 33.4197 75.044 32.9429 75.3488 32.3548C75.6536 31.7605 75.8029 31.1104 75.8029 30.3925C75.8029 29.5505 75.6213 28.8075 75.2514 28.1823C74.8817 27.5508 74.3563 27.0619 73.6751 26.7151C73.2469 26.5046 72.7539 26.3561 72.2025 26.2571C71.6509 26.1642 70.918 26.1146 70.0098 26.1146H68.6409H67.0841V34.5836ZM67.0841 22.8522H68.8096C70.9634 22.8522 72.488 22.5738 73.3831 22.0103C74.2718 21.4469 74.7195 20.4999 74.7195 19.1688C74.7195 17.7203 74.3108 16.6988 73.4868 16.1107C72.6631 15.5224 71.1062 15.2315 68.8096 15.2315H67.0841V22.8522Z" fill="#007D7E"/>
<path id="path20" fill-rule="evenodd" clip-rule="evenodd" d="M52.4102 38.2343L48.0344 28.7593L45.824 23.7859L41.8794 15.4C41.6547 14.8596 41.4121 14.2424 41.1693 13.5479C40.9268 12.8533 40.6752 12.0814 40.4327 11.2241C40.2171 12.0302 40.0013 12.7848 39.7588 13.4793C39.5253 14.1739 39.2824 14.8083 39.0399 15.4L35.0864 23.7859L32.7771 28.7593L28.3022 38.2343H21.7158L40.3789 0L59.0147 38.2343H52.4102Z" fill="#007D7E"/>
<path id="path30" d="M0.255859 20.4352C14.4424 27.4449 23.159 14.852 40.5793 22.6921" stroke="#007D7E" stroke-width="1.1533"/>
<path id="path32" d="M0.255859 24.2303C14.4424 31.2398 23.159 18.6469 40.5793 26.487" stroke="#007D7E" stroke-width="1.1533"/>
<path id="path34" d="M0.255859 28.0252C14.4424 35.0347 23.159 22.4418 40.5793 30.2819" stroke="#007D7E" stroke-width="1.1533"/>
<path id="path10" fill-rule="evenodd" clip-rule="evenodd" d="M16.3096 0.092041H53.6762V47.022H16.3096V0.092041Z" fill="#007D7E"/>
</g>
<g id="color-secondary">
<path id="path6" fill-rule="evenodd" clip-rule="evenodd" d="M111.506 46.9619L128.476 23.5716L120.758 23.0879L129.484 3.13916L114.568 25.8939L121.86 26.4286L111.506 46.9619Z" fill="white" stroke="white" stroke-width="1.8585"/>
<path id="path28" fill-rule="evenodd" clip-rule="evenodd" d="M52.4102 38.2343L48.0344 28.7593L45.824 23.7859L41.8794 15.4C41.6547 14.8596 41.4121 14.2424 41.1693 13.5479C40.9268 12.8533 40.6752 12.0814 40.4327 11.2241C40.2171 12.0302 40.0013 12.7848 39.7588 13.4793C39.5253 14.1739 39.2824 14.8083 39.0399 15.4L35.0864 23.7859L32.7771 28.7593L28.3022 38.2343H21.7158L40.3789 0L53.6766 27.2824V38.2343H52.4102Z" fill="white"/>
<path id="path22" d="M0.255859 19.0102C14.4424 26.0197 23.159 13.4268 40.5793 21.2669" stroke="white" stroke-width="1.1533"/>
<path id="path24" d="M0.255859 22.8052C14.4424 29.8147 23.159 17.2218 40.5793 25.062" stroke="white" stroke-width="1.1533"/>
<path id="path26" d="M0.255859 26.6C14.4424 33.6096 23.159 21.0167 40.5793 28.8569" stroke="white" stroke-width="1.1533"/>
</g>
<g id="color-accent">
<path id="orangeColor" fill-rule="evenodd" clip-rule="evenodd" d="M111.781 46.6125L128.549 23.5022L120.759 23.088L129.485 3.25085L114.569 25.8939L121.861 26.4286L111.781 46.6125Z" fill="#DA5E0B"/>
</g>
</g>
</svg>
